<svg width="40" height="40" viewBox="0 0 40 40" fill="none" xmlns="http://www.w3.org/2000/svg">
  <defs>
    <linearGradient id="ticketGradient" x1="0%" y1="0%" x2="100%" y2="100%">
      <stop offset="0%" style="stop-color:#E63946;stop-opacity:1" />
      <stop offset="100%" style="stop-color:#D62828;stop-opacity:1" />
    </linearGradient>
    <filter id="shadow" x="-20%" y="-20%" width="140%" height="140%">
      <feDropShadow dx="0" dy="2" stdDeviation="4" flood-color="#000000" flood-opacity="0.1"/>
    </filter>
  </defs>
  
  <!-- Ticket Icon -->
  <g transform="translate(4, 8)">
    <path d="M8 4C8 1.79086 9.79086 0 12 0H28C30.2091 0 32 1.79086 32 4V8C32 9.10457 31.1046 10 30 10C28.8954 10 28 10.8954 28 12C28 13.1046 28.8954 14 30 14C31.1046 14 32 14.8954 32 16V20C32 22.2091 30.2091 24 28 24H12C9.79086 24 8 22.2091 8 20V16C8 14.8954 8.89543 14 10 14C11.1046 14 12 13.1046 12 12C12 10.8954 11.1046 10 10 10C8.89543 10 8 9.10457 8 8V4Z" 
          fill="url(#ticketGradient)" 
          filter="url(#shadow)"/>
    
    <circle cx="20" cy="4" r="1" fill="#FFFFFF" opacity="0.8"/>
    <circle cx="20" cy="8" r="1" fill="#FFFFFF" opacity="0.6"/>
    <circle cx="20" cy="12" r="1" fill="#FFFFFF" opacity="0.6"/>
    <circle cx="20" cy="16" r="1" fill="#FFFFFF" opacity="0.6"/>
    <circle cx="20" cy="20" r="1" fill="#FFFFFF" opacity="0.8"/>
    
    <path d="M20 2L20.5 3.5L22 3.5L20.8 4.5L21.3 6L20 5L18.7 6L19.2 4.5L18 3.5L19.5 3.5L20 2Z" 
          fill="#FFD700" 
          opacity="0.9"/>
  </g>
</svg>

